<svg xmlns="http://www.w3.org/2000/svg" width="1200" height="800"><g fill="#fff" opacity=".08"><path d="M709.57 599.73 682 607.56s24.14 35.69 42.74 37.16a131.6 131.6 0 0 1-15.17-44.99M724.84 394.53l22.71 14.25 18 1.82s-34.55 54.83-39.21 74.49c0 0-38.92 24-55.37 23.15 0 0 2.53-26 22.84-76.77L712.72 411ZM885.01 284.93 858.92 300l3.69 8.48L896.65 285zM929.67 216.83s-67 21.75-75.68 35.22l20.45-1.22 18.33-8.83 32.84-11ZM569.87 507s-46.87-17.28-54.22-70.9c0 0-22.2-71.76 43.5-177 0 0 43.11-72.63 99.4-117.4s111.13-64.37 119-64.9 78.48-17.65 111.61 11.43c0 0 24.34 15.91 31.42 38.79 0 0-32.57-23.54-79.2-16.51S737.82 146 725.84 157.36l-18.54 14s-3.29-12.66-10.4-21.79-23.53-2.09-23.53-2.09-19.46 7.15-16.42 21.62 14.42 32.67 14.42 32.67-47.19 45.2-66.06 80.58c-16.25 30.49-85.7 134.22-35.44 224.65M1026.78 216.62s30.93 10.93 47.26 45c0 0-32.57-13.44-51-13.3Z"/><path d="m723.46 263.29-19.2 6.04-13.33 22.45 5.54 12.72 19.45-5.97 13.64-20.75z"/><path d="m928.75 51.25 59.25 44s23 20 30 47.25 14.5 67 3.5 106.75c0 0-12.75 54.5-26.25 83.75S952 408.5 952 408.5s-41 61.75-79.25 90.75c0 0-21.08 24.75-66.42 54.08s-77.33 42.34-99 47.67c-17 4.19-49.92 11.79-72.21 10-2.68-.22-7.11-6-11.12-6.78-3.82-.75-12.22 4.24-16.43 3.28-16.36-3.71-34.78-9.47-48.57-21.14-17.33-14.66-49.33-52-49.33-52s22 17.34 65 18.67 71.33-5.67 102-18.67 78.66-41 103-59.33 74.66-72.67 74.66-72.67 45.67-59 53-74 27-47.66 32-63.33 21.67-65.67 23-86.67.34-51.33-2.66-66.33S942.25 61 928.75 51.25"/><path d="m1082.67 189.87 59.25 44s23 20 30 47.25 14.5 67 3.5 106.75c0 0-12.75 54.5-26.25 83.75s-43.25 75.5-43.25 75.5-41 61.75-79.25 90.75c0 0-3.18 3.73-9.71 10-.77.73-.73-2-3.63-2-4.61-.16-12.8 2.06-14.41 3.5-1.85 1.66 7.28 8.37 5.12 10.22A413 413 0 0 1 960.25 692c-16.09 10.41-30.25 19.27-43.36 25.44-1.27.6-36.77-21.4-51.51-34.65-1.72-1.54-14.54.88-16.26 2.25-2 1.58 18.66 28.68 16.76 30-2.28 1.58-2.9 2.83-5.26 3.62-5.06 1.71 4.88 20 .63 21-21.67 5.34-69 11.92-87.71 8.26s-42.46-9.63-59.79-24.3-35.25-36.41-35.25-36.41 4.58-3.33 9-4.29c1.44-.32 21.36 8.13 41.08 8.74 43 1.34 71.34-5.66 102-18.66s78.67-41 103-59.34 74.67-72.66 74.67-72.66 45.67-59 53-74 27-47.67 32-63.34 21.67-65.66 23-86.66.33-51.34-2.67-66.34-17.41-51.04-30.91-60.79"/></g><path fill="none" stroke="#0baf81" stroke-linejoin="round" stroke-width="2" d="M466.72 351.64c15.71-61.28 51.54-128.3 105.1-189.09C688.6 30 845.44-22.7 922.12 44.86s44.16 229.78-72.62 362.33-273.62 185.25-350.3 117.69c-25-22-38.39-54.11-41-91.95m56.94 2.32c4.66 23.37 15.08 43.26 31.62 57.83 63.66 56.08 193.85 12.34 290.79-97.7s123.9-244.7 60.24-300.78S704 82.26 607 192.3c-70.19 79.7-103.71 172.26-92.7 238.58m122.07 180.36c82.16 2.33 188.73-52.66 274.22-149.7 118.88-134.94 152-300.07 73.92-368.85l-75.77-58.94M494.35 520.6 554 581.35c15.28 13.46 33.68 22.23 54.3 26.62M922 127.6c-50.65-35.51-136-16.45-214.39 43.2m-36.29 31.08q-13.47 12.92-26.3 27.44C557.71 328.46 528.37 448 572.81 509.24m60 7.09 14-21.06 12.53-26.62L679 448.5l32.9-37.2 16.82-24.5s7.88-15.06-24.37-26.55l-24.8-8L661.17 379l-20.83 44.67-9.89 25.15-19.21 22-28 41.63M663 338.18c17.42 15.34 53 3.38 79.55-26.73s33.91-66.94 16.49-82.28-53-3.37-79.55 26.73-33.95 66.94-16.49 82.28Zm11.27-20c11.9 10.48 36.22 2.31 54.34-18.25s23.15-45.73 11.26-56.2-36.27-2.3-54.38 18.27-23.16 45.71-11.27 56.19Zm49.38 75.18.56.51c17.41 15.34 53 3.37 79.55-26.73 14.8-16.8 23.64-35.69 25.54-51.78m-98.48 82.7a87 87 0 0 1 9.92 6.33c16.4 14.45 49.95 3.18 74.93-25.17 20.89-23.72 29.18-51.87 21.74-68.91m-157.9 41.93-16.31-13.9M759 229.17l36.9 34.24m-66.67-40.13-5.41-10.16-9.1-11.06-3.62-16.81s-6.94-31.27-15.7-36.78c-18.09-11.37-39.31 7.54-38.64 18.42 1 15.47 16.1 36.65 16.1 36.65l9 12.53 1.42 14.18 4.64 17.1m-28.52 221.3c-15.27-18.53-28.95-19.87-28.95-19.87m84.26-246.72s-11-11.34-23.41-4-9.44 18-9.44 18m194.39 34.66s-6.34 2.47-4.07 17.27 13.51 16.91 13.51 16.91M711.86 411.3c-1.66-5 .92-6.4-22.39-22.47-22.93-15.8-28.3-9.87-28.3-9.87m148.45-120s-13.1 8.31-5.26 32.83 24.06 24.71 24.06 24.71M646.87 495.27s3.18-5.09-14.83-17-20.8-7.42-20.8-7.42M679 448.5c.12-2-4.64-8.61-18.68-17.53s-19.94-7.34-19.94-7.34m83.47-210.51c-5-6.83-16.94-9.48-29.74-1.27s-10.79 18.4-10.79 18.4m27.81-45c-1.5-4.82-11.41-15-28.65-5.23s-9.59 23.52-9.59 23.52m179.31 49.08s-10.09 4.3-4.46 25.6S866.87 296 866.87 296M927 230.44l-31.85 10.46-18.9 9.83-24.09 1.89-42.54 6.29-25.52 8.15s-14.87 24.46.52 49.76c1.49 2.07 7.45 9.52 17.91 7.52l25.89-7.89L866.87 296l18.82-11.11 23.43-3.71c-4.9.45-12.17-3.4-17.16-18.5s3.19-21.8 3.19-21.8m-171.8 22.41-49.22 15m40-36.34L730 277.12m-14 21.05 29-43.81m-48.83 49.94 38.21-11.68M702 319.57l-11.1-28.78m-17.48 26.36 31.85-47.89m-171.8-28.44 4.06-6.3M577.9 181l5.06-5.77M631.13 128l5.76-5m52.64-38.19 6-3.64m6.8-4.24 6.08-3.68m41.21-18.69 5.87-2.27M807.42 39l5.36-.71m46.72.71 4.5.8m38.44 14.89 3.35 2.19m30 31.54L933.71 85m7.2 11.59-2.06-3.38M952 132.43l-.8-4.46m2.22 58.23.49-5.17m-14.21 65.49 1.85-5.79m-29.67 68.86 3.2-6.15m-43.71 67.9 4.54-6m-9.72 12.76-4.63 6m-40.46 43.65 5.49-5.39m-62.27 52.79 5.77-4.1m-60 36.88-5.71 2.84m-59 21.59 5.19-1.31m-59.89 7.51 4.6.08m-16-.33 4.83.13m-40.41-9.3 3.92 1.43m-40.11-26.05 2.81 2.88m-24.43-37-1.45-3.86m-.93-114.32 1.29-6m15.54-42.59 2.76-6.46m364.8 60.09-28.19-25.35M798.16 434l-27.52-24.83m-84.33 273.34c83 33.36 215.83-21.48 318-137.46 116.78-132.56 149.29-294.78 72.61-362.34-15.56-13.71-34.43-22.47-55.59-26.61m-90.88 6.2c-48.94 13.81-101.61 43.14-150.82 85.57m-97.3 359.33a92.3 92.3 0 0 0 19.22 23.74c63.66 56.08 193.85 12.34 290.79-97.7s123.93-244.7 60.28-300.78a92 92 0 0 0-25.41-15.85m-97.67-.67c-25.56 7.4-52.31 19.86-78.78 36.9M695.44 430c-12.76 27.1-21.34 53.89-25.49 79.07m346.4 139.52a557 557 0 0 0 49.06-49.21c118.89-134.94 152-300.08 73.92-368.85l-75.76-58.94M916.49 717c29.21-14.6 58.74-33.94 87.26-57.59M678.17 688l30.65 31.21c37.08 32.68 92.58 37.72 153.37 19.55m214.66-473.29c-15.38-10.79-34-16.54-54.57-17.65m-110.44 29.05a362 362 0 0 0-49.37 31.79m-95.6 100.81a384.2 384.2 0 0 0-40.81 75.85m-17 115.29c2.91 17.65 9 33.4 18.54 46.49m10.47 3.19 27.95-41.62 19.22-22 9.89-25.15.45-1m-8 93.68 14.05-21.07 12.54-26.61 19.56-20.15 32.9-37.21 16.81-24.49s5.82-11.12-13-21.53m7.91 28.09c.18.17.37.35.56.51 17.41 15.34 53 3.38 79.55-26.72 14.8-16.8 23.64-35.7 25.53-51.78m-125.21-153.5a171 171 0 0 1 7.14 23.37l3.62 16.81 5.11 6.21m-60.42 260.38c-15.27-18.53-29-19.87-29-19.87m84.26-246.72s-11-11.35-23.42-4c-.52.31-1 .62-1.49 1m186.45 51.73s-6.34 2.48-4.07 17.27 13.51 16.92 13.51 16.92M866.69 549.15c-1.66-5 .91-6.4-22.39-22.46m120.15-129.92s-13.1 8.31-5.26 32.83 24.06 24.7 24.06 24.7M801.69 633.12s3.19-5.08-14.82-17-20.81-7.42-20.81-7.42m67.73-22.31c.12-2-4.64-8.61-18.68-17.53s-19.94-7.34-19.94-7.34m79.19-214.36c-4.63-2.77-11.22-3.54-18.52-.9m10.08-23.12c-1.43-4.58-10.44-14-26.12-6.55m167.2 73.89s-10.09 4.3-4.47 25.59 19.18 17.81 19.18 17.81m-62-35.6 4.72-1.51 42.54-6.29 24.09-1.9 18.89-9.82 31.89-10.47m-149.1 66.84a47.06 47.06 0 0 0 6.71 19.55c1.49 2.07 7.45 9.51 17.91 7.51l25.89-7.89 38.45-20.42 18.82-11.11 23.43-3.71c-4.9.44-12.17-3.41-17.17-18.5s3.19-21.8 3.19-21.8M844.36 222.68l6-3.64m6.8-4.24 6.08-3.68m41.2-18.69 5.88-2.27m146.95 2.41 3.35 2.2m30 31.54-2.11-3.5m7.2 11.59-2.06-3.38m13.13 39.27-.8-4.47m2.21 58.23.5-5.16m-14.2 65.49 1.86-5.8m-29.67 68.87 3.19-6.15m-43.7 67.89 4.53-6.05M1016.39 522l4.63-6m-45.09 49.7 5.49-5.39M919.15 613l5.76-4.09m-60 36.87-5.71 2.84m-59 21.59 5.19-1.31m-59.89 7.51 4.6.09m-16-.34 4.83.13M698.56 667l3.92 1.42"/><g fill="none" stroke-linejoin="round" stroke-width="2"><g stroke-linecap="round"><path stroke="#0baf81" d="m456.06 383.47 12.55-13.64 12.45-2.94-8.66 9.45m-3.79-6.51-4.14-6.52-12.22 13.32m28.81-9.74-4.14-6.52-12.45 2.94m-6.06 6.6L461.5 356l-18.56 4.4m18.56-4.4-18.07-10.43-22.34 5.3 10.85 6.26m-12.23-.13 1.38-6.18m.36 10.85-8.14 1.08-1.65 12.52m-2 16.1 1.21-10.07M408 404.06l.87-7m-2.22 17.69.88-7m-2.03 16.45.71-5.61m.48-64.2-2.18 16.71m-5.44 43.4-.88 7m5.56-44.19-1.23 9.69m24.42-28.49-20.25-4.09m0 0 6.62 8.38m13.63 21.58c8.46-.06 19.82-8.48 19.4-16.83a10.45 10.45 0 0 0-4.79-8.19c-10.83-7.62-30.49 5.25-25.88 18.28m41.19 7.65-11.72-22.1M450 420l26.86-32.32-39 11m-.1 0-.74 13.74L450 420m67 14-40.11-46.34M450 420l44.15 25.48L516.92 434m-24.77 7.81 20.22-10.14m-21 26.32.76-13.67m-.78 13.68 3.65-1.83 14-18.09m-12.43-12.19 15.83 5.77m-19.48-3.94 3.65-1.83m-4.39 15.93.74-14.1m-48.4-9.54c4.44 11.17 16.53 18.73 28.65 16.55m-25.86-16c4.1 7.94 12.94 13.68 22 12.71M438.16 415l.61 8.79 6.61-4.42m15.73-27.7v-2.19l-9.14 5.2m23-13.28v6.78m0-6.86-9 5.28.05 4m-20.52 31.95-6.53 4.4.49 6.72 8.95-6.42m34.22-32.79 3.24-2.17v-7l-7.25 4.52m7.25 8.37v-2.58l-1.4.95m-6.36-17.06v7.41l7.76-4.78v-7.15zm-83.7 28.17 4.54-2m-15.88 7.12L387 411m41.11-8.86 3.88 47m-8-49.41-49.18-28.36m-4.04-2.37 4.73 47.55 56.5 32.59 23.24-16.39m35.9-28.6v-38.43l-51.83 29.93m-68-21.07-2.78-1.6m-37.88-23.93 20.25-10.14m-19.48-4 3.65-1.83m-4.42 15.93.77-14.1m15.79 1.09 62.55 18.64m-85.38-7.2 6.47-3.18m14.62-7.4 1.74-.86m21.32 37-44.15-25.51m6.22 3.51-.81 14.29 3.65-1.83 5.75-7.46m-4.12-22.86 15.83 5.79m17.49 35.28a36 36 0 0 0 3.19 6.35m51.13 4.64 5.36 16.8.1.08 11.13-6.41-13.71-12.54zm1.3 14.55 4.08 2.38V402m-56.68-49.86c-1.8.06-2.9 1.31-3.09 3.24m2.45 13.62 4.06 2.38m49 17.47-55.64-32.1m3.35-4.62 53.88 31.1m-43.3-18.37-11 4.06m35.26-13-17.18 6.33m101.88 3.49-43.33-25-38.62 14.19m-38.44-3.46-3.6 1.66 3.6 15.78v0m14.16 21.75-.7-8-8.87-5.08m.81 8-.83-7.91m-5-3.48s.74 1.63 1.15 2.38m4.62 8.95 8.83 5.08m1.28 12.4-.7-8-8.87-5.08m.81 8-.83-7.91m.77 7.85 8.82 5.08m1.26 12.43-.7-8-8.87-5.07m.81 8-.83-7.9m.77 7.85 8.82 5.08m10.87-16.8-.7-8-8.87-5.07m.81 8-.83-7.91m.77 7.85 8.83 5.08m1.22 12.22-.7-8-8.87-5.07m.81 8-.83-7.91m.77 7.85 8.83 5.08m1.22 12.35-.7-8-8.87-5m.81 8-.83-7.91m.77 7.85 8.83 5.08m11.2-16.57-.7-8-8.87-5.07m.81 8-.83-7.91m.77 7.85 8.83 5.08m1.22 12.22-.7-8-8.87-5.07m.81 8-.83-7.9m.77 7.84 8.83 5.08m1.22 12.39-.7-8-8.87-5.07m.81 8-.83-7.91m.77 7.85 8.82 5.08m10.85-16.7-.7-8-8.87-5.07m.81 8-.83-7.91m.77 7.85 8.83 5.08m1.22 12.22-.7-8-8.87-5.07m.81 8-.83-7.9m.77 7.84 8.83 5.08m1.22 12.39-.7-8-8.87-5.07m.81 8-.83-7.91m.77 7.85 8.83 5.08"/><g stroke="#0f8499" opacity=".6"><path d="M350 397.16a21.26 21.26 0 0 0 5.18 12.9c2.49 2.89 7.18 6.87 11.26 4.68s3.15-8.3 1.94-11.9a20.74 20.74 0 0 0-8.54-11.18c-5.11-3-9.75-.4-9.84 5.5M336.15 410.84a14.64 14.64 0 0 0 3.58 8.92c1.72 2 5 4.76 7.79 3.25s2.18-5.75 1.35-8.24A14.3 14.3 0 0 0 343 407c-3.53-2.09-6.74-.28-6.8 3.8M326 422a8.44 8.44 0 0 0 2.07 5.14c1 1.16 2.86 2.75 4.49 1.87s1.26-3.31.78-4.75a8.3 8.3 0 0 0-3.41-4.46c-2-1.2-3.89-.16-3.93 2.2M424.78 444.94a21.2 21.2 0 0 0 5.18 12.9c2.48 2.89 7.18 6.87 11.26 4.68s3.14-8.3 1.94-11.9a20.67 20.67 0 0 0-8.55-11.18c-5.1-3-9.74-.4-9.83 5.5M411 458.62a14.6 14.6 0 0 0 3.58 8.92c1.72 2 5 4.76 7.79 3.25s2.18-5.75 1.34-8.24a14.33 14.33 0 0 0-5.91-7.74c-3.53-2.09-6.74-.27-6.8 3.81M400.8 469.79a8.42 8.42 0 0 0 2.06 5.14c1 1.16 2.87 2.75 4.5 1.87s1.26-3.31.77-4.75a8.2 8.2 0 0 0-3.41-4.46c-2-1.21-3.89-.16-3.92 2.2"/></g></g><g stroke="#0f8499" stroke-linecap="round" opacity=".6"><path d="M213.18 712.49a21.26 21.26 0 0 0 5.18 12.9c2.49 2.89 7.19 6.87 11.26 4.68s3.15-8.3 1.95-11.9A20.76 20.76 0 0 0 223 707c-5.11-3-9.74-.4-9.84 5.5M199.36 726.17a14.7 14.7 0 0 0 3.64 8.93c1.71 2 5 4.75 7.79 3.24s2.17-5.75 1.34-8.24a14.3 14.3 0 0 0-5.91-7.73c-3.54-2.09-6.74-.28-6.81 3.8M189.2 737.34a8.5 8.5 0 0 0 2.07 5.15c1 1.15 2.87 2.74 4.49 1.87s1.26-3.32.78-4.76a8.3 8.3 0 0 0-3.41-4.46c-2-1.2-3.89-.16-3.93 2.2M262.66 742a21.16 21.16 0 0 0 5.17 12.89c2.49 2.89 7.19 6.88 11.26 4.69s3.15-8.3 2-11.91a20.73 20.73 0 0 0-8.55-11.17c-5.11-3-9.74-.4-9.83 5.5M248.83 755.7a14.68 14.68 0 0 0 3.59 8.92c1.72 2 5 4.76 7.79 3.24s2.17-5.74 1.34-8.23a14.37 14.37 0 0 0-5.91-7.74c-3.54-2.09-6.74-.27-6.81 3.81M238.67 766.86a8.46 8.46 0 0 0 2.07 5.15c1 1.16 2.87 2.75 4.5 1.87s1.25-3.31.77-4.75a8.3 8.3 0 0 0-3.41-4.46c-2-1.21-3.89-.16-3.93 2.19"/></g><path stroke="#0baf81" d="m253.5 674 .09-74.89 64.76 37.42-.07 74.59Zm69.72 34.28-4.94 2.84M447 637l-118.3 68.09m121.42-144.78-.05 72.48M436.81 560l-51.32-29.69-118.81 68.6 51.32 29.8ZM311.87 699.86l.05-59.48-51.66-29.86-.09 59.61Zm132-68.26L444 572l-119 68.6V700Zm-107.61 77 114.62-66.21m8.84-5.21 12.88-7.44-8.76-5.07s-10.17 2-12-.66c-1.47-2.13.49-6 .49-6l-2.07-1.21M300.12 719.48l8.65 5L327 714m-75.42-22.72 36.86 21.39m-34.71-46.4L231 679.36l8.94 5.19m12.73 26.13 23.54 13.66m-45.21-45-.93 8m66 55.74c4.48-2.58 4.45-11-.07-18.84s-11.8-12.06-16.28-9.48-4.45 11 .07 18.84 11.8 12.14 16.28 9.55Zm-48.74-28.1c4.48-2.58 4.45-11-.06-18.84s-11.81-12.06-16.29-9.48-4.44 11 .07 18.85 11.81 12.13 16.28 9.54Zm226.12-74.58c3.35-3.26 3-10.89-1.16-18-4.51-7.82-11.8-12.07-16.28-9.48-1.65 1-2.73 2.56-4.32 4.35M247 708.48c2.44-1.38 2.13-6.55-.7-11.54s-7.09-7.93-9.53-6.55-2.12 6.54.7 11.54 7.04 7.92 9.53 6.55Zm48.66 28c2.44-1.38 2.13-6.55-.69-11.54s-7.09-7.93-9.53-6.55-2.13 6.54.69 11.54 7.04 7.91 9.48 6.54Zm28.77-33.38a1.12 1.12 0 0 0-.63-.68c-.79-.29-1.84.56-2.35 1.9s-.27 2.68.53 3m14.1 8.68-9.65-5.54 1 6.85 7.77 4.43 4.94-2.85 2.36-7.68-5.67 3.27-2.16 6.9m6.8-9.62-9.62-5.58-3.18 1.82v3m-7.17-4.18 5.91 3.41m3.45-3.73-7-4m124.39-70.51a1.08 1.08 0 0 0-.63-.67c-.79-.3-1.84.55-2.34 1.9s-.28 2.67.52 3M460 645l-9.71-5.59 1 6.82 7.77 4.46 4.94-2.85 2.36-7.68-5.67 3.27-2.15 6.9m6.79-9.61-9.62-5.58-3.13 1.86v3m-7.16-4.18 5.9 3.41m3.45-3.73-7-4M244.86 657v-1.16l-4.93 2.84 1.91 8.57 5.06 2.9m4.89-3.1-11.43-6.47m13.64 1.36-2.07 1.25v3.18m2.07-4.46-9.27-5.25-4 2.32m146.12-127.89c-5.05 1.12-9.81 7.16-9.81 7.16-6.46 8.46-12.11 7.7-12.11 7.7-6.68-1.91-13 6.93-13 6.93a15.89 15.89 0 0 1-12.33 7.55c-7.06-1.6-13.14 7.08-13.14 7.08-6.56 8.73-12.21 7.49-12.21 7.49-7.25-1.22-13.07 7.1-13.07 7.1-5.89 8.13-12.07 7.54-12.07 7.54-6.65-1.17-12.23 6.58-12.23 6.58-1.38 2.17-5.79 5.53-5.79 5.53m54.39 22.49-48.74-28.3m12.39-6.4 48.35 28.07M301.18 582l48.75 28.3M314.3 575l48.27 28m-36-35.46 48.75 28.3m12.92-7.15-48.74-28.3m12.22-7.59-.25-.14m48.74 28.3-48.49-28.16m13.3-6.94 48.26 28m-36.2-35.6 48.75 28.3M297.17 742.33s6.88-5 6.95-10.6-4.25-12.37-4.25-12.37 4-6.63-2.19-7.45c-5-.66-16.42 2.3-16.42 2.3m-32.65-.13s6.78-4.84 6.85-10.46-4.24-12.36-4.24-12.36 4-6.63-2.2-7.45c-5-.66-16 2.24-16 2.24m93.35 8.46c-.93.35-1.53.61-1.53.61m52-29.7s4.06-1 5.55-1.22 9.6-1.25 12.68-7.61 12.89-7 12.89-7 9.36-.88 12.41-7.58c0 0 1.82-5.51 12.61-6.89 6.07-.78 9.37-3.15 11.09-5.07m-61.76-22.65.05 56.89m12.8-7.66-.05-56.26m12.68 49.29-.05-56.9m12.51-7.38.05 57m12.79-7.19v-56.56M260.24 667c2.8 5.23 9.18 8.45 14.18 8.86s11.12 3.38 12.74 7.17 7.78 7.21 12.7 7.53 11.92 4.54 11.92 4.54m-11.9-2 .05-59.48M287.12 626l-.05 59.47m-12.44-7.13v-59.47m43.7 17.67 131.68-76.18-64.62-37.37-131.78 76.07m47.49 139.72 9.19 5.35 164.09-94.78-1.82-19.52m-146.39 64.71s4.05-1 5.54-1.22 9.61-1.25 12.69-7.61 12.88-7 12.88-7 9.37-.88 12.41-7.57c0 0 1.18-3.54 7.2-5.66m-45.19 28-.05-56.9m12.86 49.23-.05-56.26m12.68 49.3-.05-56.91m12.51-7.37v57"/></g><g fill="none" stroke-linecap="round" stroke-linejoin="round" stroke-width="2"><path stroke="#0baf81" d="M888.29 700.63 933 726.38m-22.19 14.74 51.73 10 4.86-9.72-34.42-15m-54 4.09s2.44-1.61-2.29-2.56-11.41 2.5-10.41 5.84 7.56 7.59 15.86 5.53 7.89-8.37 3.74-11a12.85 12.85 0 0 0-8.38-2.3m1.31 4.63-6.36 2.77m11.73-.76c-.29-3.12-5.08-2.18-5.1-2.17m14.07-8.56.26 1.58 2.89.26m-37.57-3.41-.13.13 4.46 19.7m25.23-39.54-29.56 19.71 34.42 1.57zm-29.56 19.71 34.42 1.57h0m39.8 4.47-36.62-2.66m0 0 6.8 22.5L933 726.38m-44.66-25.75-24.57-19-15 3.94 17.34 30m-3 24.69s.7 2.8 5.91 3.42l34.16 2.63m-30-12.82s-.63 2.94 5.8 2.69c0 0 4.57-.57 5.22-3.45"/><g stroke="#0f8499" opacity=".6"><path d="M903.53 686.13a8.46 8.46 0 0 0 2.07 5.15c1 1.16 2.86 2.75 4.49 1.87s1.26-3.31.78-4.75a8.3 8.3 0 0 0-3.41-4.46c-2-1.21-3.89-.16-3.93 2.19M933.7 703.44a8.46 8.46 0 0 0 2.07 5.15c1 1.16 2.87 2.75 4.49 1.87s1.26-3.31.78-4.75a8.3 8.3 0 0 0-3.41-4.46c-2-1.21-3.89-.16-3.93 2.19"/></g><path stroke="#0baf81" d="m1037.74 664.55 44.66 25.75m-22.19 14.7 51.73 10 4.87-9.72-34.42-15m-54 4.09s2.45-1.61-2.29-2.56-11.4 2.5-10.4 5.84 7.55 7.59 15.85 5.53 7.89-8.37 3.74-11a12.85 12.85 0 0 0-8.35-2.32m1.31 4.63-6.36 2.77m11.73-.76c-.29-3.13-5.08-2.18-5.1-2.17m14.07-8.56.26 1.58 2.89.26m-37.57-3.41-.13.13 4.46 19.7m25.23-39.54-29.56 19.71 34.42 1.57zm-29.56 19.71 34.42 1.57h0m39.8 4.47-36.62-2.66m0 0 6.8 22.5 29.82-19.84m-44.66-25.75-24.57-19-15 3.94 17.35 30m-3 24.69s.7 2.79 5.92 3.42l34.15 2.63m-30-12.82s-.63 2.94 5.79 2.69c0 0 4.57-.57 5.22-3.45"/><g stroke="#0f8499" opacity=".6"><path d="M1053 650.05a8.46 8.46 0 0 0 2.07 5.15c1 1.16 2.87 2.75 4.49 1.87s1.26-3.31.78-4.75a8.3 8.3 0 0 0-3.41-4.46c-2-1.21-3.89-.16-3.93 2.19M1083.15 667.36a8.46 8.46 0 0 0 2.07 5.15c1 1.16 2.87 2.75 4.5 1.87s1.25-3.31.77-4.75a8.3 8.3 0 0 0-3.41-4.46c-2-1.21-3.89-.16-3.93 2.19"/></g></g><g fill="none" stroke-linecap="round" stroke-linejoin="round" stroke-width="2"><g stroke="#0f8499" opacity=".6"><path d="M676.73 631.8a12.9 12.9 0 0 0 3.16 7.86c1.51 1.76 4.37 4.19 6.86 2.86s1.91-5.06 1.18-7.26a12.65 12.65 0 0 0-5.21-6.81c-3.11-1.84-5.93-.24-6 3.35M690.18 627.54a7.42 7.42 0 0 0 1.82 4.53c.87 1 2.52 2.42 4 1.65s1.11-2.92.69-4.19a7.33 7.33 0 0 0-3-3.93c-1.79-1.06-3.42-.14-3.45 1.94M632.6 606.12a12.88 12.88 0 0 0 3.15 7.86c1.52 1.76 4.38 4.19 6.86 2.85s1.92-5.06 1.19-7.25a12.65 12.65 0 0 0-5.21-6.81c-3.11-1.84-5.94-.24-6 3.35M646 601.85a7.48 7.48 0 0 0 1.82 4.54c.87 1 2.53 2.41 4 1.64s1.1-2.92.68-4.18a7.24 7.24 0 0 0-3-3.93c-1.8-1.06-3.43-.14-3.46 1.93"/></g><path stroke="#0baf81" d="m608.41 618.15-19.1 18.42 5.29 3m0 0 19.16-18.42m0 0 10.7-6.14-5.35-3.1-10.7 6.2m-13.81 21.5v3.67l29.86-17.19v-11m-35.15 21.52v3.66l5.29 3m-29.8-23.67-4.28 2.48.39 2 1.52 1.41m.51-1.18-2.42-2.26m115.21 66.54-37.07-16.28.17 1.8 36.5 16m0 0 11.89-6.87m0 0 .45-1.53-21.52-19m9.58 25.92 11.94-6.88m-42.25-13.29-6.76 3.89m-97.3-27.21a35.3 35.3 0 0 0-14.92 20.42 33.5 33.5 0 0 0-1 7.18m63.72 36.79-63.72-36.79m79.66 9.18a35.76 35.76 0 0 0-14.92 20.43 33 33 0 0 0-1 7.18m15.94-27.61-63.72-36.78m17.24-10-17.24 10m63.78-36.85-9 5.18m72.62 50-1 .62M645.36 677l-56.22 32.51m70.76-59.27 9-5.18m-63.78 36.84 18.2-10.53m52.17-37.13-51.55-29.8m44.9 59v-2.31m6.65-24L668.86 648h-.06v7.39m-.45 9.18c4.11-1.19 8.77-1.6 10.41-6.12 1.48-4.07.3-8.84-1.32-12.68a34 34 0 0 0-3.51-6.1m-67-20.06-26.19-15.15m91.49 54.7v-1.86l-32-18.48m-47.83 27.61 10.14 5.86 57-7.61 12.73-7.38m-91.49-52.84-12.88 7.44-13.13 32.84 10 5.8m-10-3.94 11.61 6.7m24.34 14.09 11.77 6.82 20.79-2.82m0 0 36.17-4.79 12.73-7.38M554.77 646.6v-1.86m85.41-5.86-4.51-11.6-11.21-6.48m-24.73 5.69-30.48 17.63 18.59 10.76 47.83-27.6m-70.93 23.26 4.51-6.42m21.47 23.27-4.12-10.65-16.11-9.29-4.11 5.85 7.15-4.11m14.31 5.69 4.51 11.61 47.83-27.61m35.27-1.69v-2.93l-6.59 10.82m-63.72-36.79 18.76-3.83"/></g></svg>