<svg xmlns="http://www.w3.org/2000/svg" viewBox="0 0 48 48"><defs><linearGradient id="a" x1="3.83" x2="44.17" y1="24" y2="24" gradientUnits="userSpaceOnUse"><stop offset="0" stop-color="#00749d"/><stop offset="1" stop-color="#00aed7"/></linearGradient></defs><path fill="url(#a)" d="M39.66 42.57c-6.54 6.54-19.8 1.81-27-4-7-5.66-12.36-23.64-6-30 6.54-6.55 27.19-9.2 33-2 5.66 7 6.34 29.63 0 36" opacity=".24"/><path fill="#fff" d="m10.88 15.13 1.37 11.79L.58 33.88l5.3 3.91L16.71 35l13.83 6.79 10.79-6.29-.04-10.21-1.96-1.79 8.13-10.04-5.63-3.83-11.33 6.75-2.04-2-3.08-7-.8-.63.84 5.63-11.67 7-2.04-4.25z" opacity=".7"/><g fill="#fff"><path d="m25.21 7.46 3.23 6.92 2.04 1.77-8.71 1.91-1.52 7.09-5.27-2.8-1.27-3.14 11.54-6.79-.5-5.27zM36.08 20.83l4.98 4.4-6.93 4.25z"/></g><g fill="none" stroke="#02303d" stroke-linecap="round" stroke-linejoin="round" stroke-width=".75"><path d="M6.18 24.37c-.48 1.07-.77 2.65.43 3 1 .28 2.23-1 2.68-2.06s.57-2.51-.39-2.8-2.22.77-2.72 1.86m-2.81-2.3c-.25.55-.4 1.36.21 1.53s1.15-.52 1.42-1.06.29-1.29-.2-1.43-1.18.4-1.43.96m27-12.57c-.49 1.07-.77 2.65.42 3 1 .28 2.24-1 2.68-2.06s.57-2.51-.38-2.8-2.27.77-2.76 1.86Zm-2.86-2.3c-.25.55-.39 1.36.22 1.53s1.15-.52 1.37-1.06.29-1.29-.19-1.43-1.15.4-1.4.96" opacity=".7"/><path d="M28.22 21.89 36.14 20l-2 9.49m2-9.49-6.44-3.78-7.95 1.91 6.46 3.77m-6.46-3.77L20.28 25m-7.22 1.54 13.32 5.77M6 37.7l20.39-5.36m-13.27-5.79L.38 34m0 0L6 37.7m19.37-25.24-11.64 6.81M16.48 35l14.16 6.81V31.45l-15.54-9.1m32.52-9-8.21 10.3M42 9.64l5.59 3.7m-16.68 2.85L42 9.64M15.1 22.35l-3.35-7-.88-.41m0 0 1.46 12m20.83-8.71-4.59-3.74m2.07 17 10.65-6.22L36 20.75m5.29 4.48v10.34M28.57 14.48l-3.35-7-.72-.51m6.14 34.86 10.65-6.22M24.6 8.77l-12.46 7.31m12.35-9.14.88 5.52M26.67 29l1.55-7.14"/></g></svg>